<svg width="86" height="69" viewBox="0 0 86 69" fill="none" xmlns="http://www.w3.org/2000/svg">
<path d="M13.043 61.043V67H0.298828V0.349609H13.043V26.4238C14.9961 24.1452 16.8678 22.5013 18.6582 21.4922C21.4251 19.9297 24.5501 19.1484 28.0332 19.1484C34.9993 19.1484 40.7611 21.6712 45.3184 26.7168C49.3223 31.1764 51.3242 36.987 51.3242 44.1484C51.3242 52.0586 48.9316 58.2435 44.1465 62.7031C39.9798 66.6419 34.8203 68.6113 28.668 68.6113C24.9896 68.6113 21.7018 67.8464 18.8047 66.3164C16.8841 65.3073 14.9635 63.5495 13.043 61.043ZM25.4941 29.8906C21.5879 29.8906 18.3815 31.5833 15.875 34.9688C13.8893 37.638 12.8965 40.7305 12.8965 44.2461C12.8965 48.6081 14.1335 52.0911 16.6074 54.6953C18.9186 57.1367 21.7995 58.3574 25.25 58.3574C29.1888 58.3574 32.3301 56.9251 34.6738 54.0605C36.7572 51.4889 37.7988 48.2174 37.7988 44.2461C37.7988 40.4049 36.7409 37.1335 34.625 34.4316C32.2812 31.4043 29.2376 29.8906 25.4941 29.8906ZM61.041 19.5391L70.3184 7.82031H58.6973V0.642578H85.2109L73.5898 15.3887C76.0312 15.6165 78.196 16.4792 80.084 17.9766C83.0137 20.2878 84.4785 23.4779 84.4785 27.5469C84.4785 31.7461 82.9486 35.1803 79.8887 37.8496C77.3171 40.1283 74.0781 41.2676 70.1719 41.2676C65.0612 41.2676 61.2689 39.4935 58.7949 35.9453C57.6882 34.3828 56.9395 32.1204 56.5488 29.1582L64.459 28.8652C64.6868 30.1999 65.1263 31.2253 65.7773 31.9414C66.8516 33.1458 68.235 33.748 69.9277 33.748C71.7832 33.748 73.3132 33.1133 74.5176 31.8438C75.5267 30.8346 76.0312 29.5814 76.0312 28.084C76.0312 26.4889 75.5104 25.1706 74.4688 24.1289C73.362 22.957 71.8483 22.3711 69.9277 22.3711C68.4954 22.3711 67.2096 22.7454 66.0703 23.4941L61.041 19.5391Z" fill="white"/>
</svg>
